<?xml version="1.0" standalone="no"?>
<!DOCTYPE svg PUBLIC "-//W3C//DTD SVG 20010904//EN"
 "http://www.w3.org/TR/2001/REC-SVG-20010904/DTD/svg10.dtd">
<svg version="1.0" xmlns="http://www.w3.org/2000/svg"
 width="225.000000pt" height="225.000000pt" viewBox="0 0 225.000000 225.000000"
 preserveAspectRatio="xMidYMid meet">
<metadata>
Created by potrace 1.10, written by Peter Selinger 2001-2011
</metadata>
<g transform="translate(0.000000,225.000000) scale(0.100000,-0.100000)"
fill="#000000" stroke="none">
<path d="M182 2120 c-18 -11 -41 -34 -52 -52 -19 -32 -20 -53 -20 -943 0 -890
1 -911 20 -943 11 -18 34 -41 52 -52 32 -19 53 -20 943 -20 890 0 911 1 943
20 18 11 41 34 52 52 19 32 20 53 20 943 0 890 -1 911 -20 943 -11 18 -34 41
-52 52 -32 19 -53 20 -943 20 -890 0 -911 -1 -943 -20z m1871 -15 c18 -8 40
-29 50 -46 16 -29 17 -92 17 -938 l0 -907 -35 -40 -35 -39 -919 -3 -920 -2
-40 38 -41 39 0 918 0 918 40 38 c29 27 50 39 77 41 21 2 429 2 906 1 752 -2
873 -5 900 -18z"/>
<path d="M1045 1845 c-5 -2 -43 -11 -83 -20 -91 -21 -148 -46 -234 -102 -77
-51 -187 -165 -218 -226 -11 -23 -25 -49 -30 -57 -11 -19 -33 -73 -50 -125 -7
-22 -16 -89 -21 -150 -9 -133 11 -233 71 -360 33 -69 149 -225 169 -225 3 0
23 -16 45 -34 46 -41 158 -97 241 -121 73 -21 285 -24 367 -5 170 40 344 169
437 322 85 142 101 204 101 381 0 145 -15 218 -64 315 -15 29 -24 58 -20 64 4
6 3 8 -3 5 -6 -4 -23 12 -38 36 -57 86 -209 210 -291 237 -19 6 -34 16 -34 22
0 6 -3 9 -6 6 -3 -4 -20 -2 -37 4 -101 31 -256 48 -302 33z m260 -41 c33 -8
98 -33 144 -55 67 -33 100 -57 171 -128 153 -153 218 -320 207 -535 -5 -118
-31 -213 -85 -306 -126 -222 -361 -360 -611 -360 -120 0 -210 22 -320 76 -77
38 -109 61 -180 133 -69 69 -95 103 -128 171 -61 124 -77 193 -76 330 2 171
42 289 147 426 166 218 459 317 731 248z"/>
<path d="M1050 1720 c-225 -30 -422 -189 -492 -397 -76 -224 -20 -462 147
-628 314 -312 839 -189 992 232 32 90 40 223 19 323 -63 302 -361 512 -666
470z m208 -25 c64 -13 186 -74 239 -118 84 -71 151 -167 184 -264 19 -56 23
-90 23 -193 1 -107 -3 -134 -22 -185 -67 -173 -177 -287 -347 -359 -66 -28
-78 -30 -206 -30 -83 -1 -145 3 -160 10 -13 7 -40 18 -59 25 -56 20 -141 77
-198 132 -172 167 -217 447 -107 673 61 124 193 241 325 287 82 29 243 40 328
22z"/>
<path d="M780 1445 c-15 -18 -17 -172 -3 -185 4 -5 60 -10 123 -12 l115 -3 3
-286 c2 -241 5 -289 17 -299 10 -8 49 -13 100 -14 75 -1 86 1 91 18 3 10 6
140 6 290 0 149 4 276 9 282 6 7 50 12 115 13 57 1 111 4 119 7 19 8 22 173 3
192 -9 9 -100 12 -349 12 -291 0 -338 -2 -349 -15z m690 -92 l0 -88 -127 3
-128 4 3 -304 3 -303 -90 -1 -91 -1 0 304 0 305 -130 -3 -130 -4 0 88 0 87
345 0 345 0 0 -87z"/>
</g>
</svg>
